<svg version="1.1" id="Layer_1" xmlns="http://www.w3.org/2000/svg" xmlns:xlink="http://www.w3.org/1999/xlink" x="0px" y="0px"
	 width="100%" viewBox="0 0 304 240" enable-background="new 0 0 304 240" xml:space="preserve">
<path fill="#000000" opacity="1.000000" stroke="none" 
	d="
M222.436844,104.393997 
	C203.902939,122.615120 185.584656,140.546219 167.367096,158.579102 
	C165.027466,160.895004 163.543320,161.218781 160.816849,158.847427 
	C151.379684,150.639404 143.093918,141.256622 133.873413,132.862808 
	C124.143967,124.005676 114.947701,114.625656 105.502167,105.490402 
	C102.899254,102.972984 102.458420,101.169006 105.430916,98.656578 
	C108.347458,96.191444 111.088531,93.460152 113.576263,90.562096 
	C116.259804,87.435921 118.189102,88.019623 120.804474,90.747803 
	C127.604233,97.840828 134.620316,104.728951 141.629623,111.617920 
	C148.597809,118.466476 154.848145,126.146469 164.188171,130.879257 
	C167.176025,128.790329 170.521515,126.423866 173.458206,123.482628 
	C184.403824,112.520073 195.498001,101.702667 206.281372,90.583458 
	C209.153061,87.622337 210.949417,87.812370 213.481445,90.656540 
	C216.134933,93.637131 219.090012,96.351326 221.945175,99.149422 
	C223.475754,100.649391 224.829620,102.117439 222.436844,104.393997 
z"/>
</svg>