<svg version="1.1" id="Layer_1" xmlns="http://www.w3.org/2000/svg" xmlns:xlink="http://www.w3.org/1999/xlink" x="0px" y="0px"
	 width="100%" viewBox="0 0 336 320" enable-background="new 0 0 336 320" xml:space="preserve">
<path fill="#000000" opacity="1.000000" stroke="none" 
	d="
M275.759949,231.080490 
	C274.716736,238.443253 275.418274,245.444397 275.283813,252.432144 
	C274.994965,267.440338 268.953552,279.029602 255.602188,286.505859 
	C248.340500,290.572113 241.227158,294.902405 233.998276,299.028412 
	C221.202805,306.331696 208.350555,306.259155 195.535248,299.070740 
	C191.760818,296.953613 187.994659,294.804626 184.355774,292.466309 
	C175.139832,286.544312 166.088486,286.638733 156.719666,292.319916 
	C149.637512,296.614471 142.788834,301.436981 134.475143,303.398041 
	C126.164841,305.358215 118.268288,304.382294 110.703209,300.656158 
	C100.988167,295.871033 91.644409,290.404358 82.517265,284.588165 
	C71.334503,277.462036 66.400780,266.779083 65.807259,253.896088 
	C65.554604,248.412003 65.802948,242.904037 65.850105,237.407135 
	C65.925880,228.575668 61.898148,222.148270 54.355858,217.803986 
	C50.893005,215.809433 47.418423,213.828476 43.880451,211.972305 
	C30.782829,205.100769 23.136341,194.770538 22.401237,179.588409 
	C21.941788,170.099380 21.751740,160.623413 22.016872,151.138123 
	C22.483860,134.431442 31.011734,123.090691 45.682838,115.861969 
	C48.665909,114.392159 51.569199,112.746193 54.435360,111.056099 
	C61.899120,106.654907 65.886765,100.273552 65.887260,91.410545 
	C65.887672,83.938614 65.198364,76.467087 66.484695,68.986679 
	C68.145706,59.327278 72.347488,51.281189 80.530411,45.754871 
	C90.883125,38.763184 101.552109,32.221615 113.029472,27.237123 
	C122.713585,23.031424 132.541687,23.528725 141.983902,28.268414 
	C146.737488,30.654558 151.388901,33.293850 155.878265,36.146423 
	C165.367096,42.175667 174.716309,42.805553 184.367630,36.483509 
	C188.674515,33.662312 193.240555,31.209799 197.810471,28.822506 
	C208.949692,23.003454 220.317749,23.007746 231.352814,28.771595 
	C240.488770,33.543510 249.314560,38.926556 258.154114,44.244389 
	C269.954376,51.343384 274.709290,62.440712 275.227570,75.687843 
	C275.429260,80.842796 275.321350,86.017685 275.158997,91.177338 
	C274.872437,100.283966 279.057648,106.748878 286.697235,111.238472 
	C289.423462,112.840599 292.141846,114.488998 294.997070,115.833244 
	C311.145996,123.436211 319.109100,136.184875 318.971375,153.952591 
	C318.899231,163.264450 319.445557,172.566376 318.471924,181.895248 
	C317.158508,194.480042 311.111206,203.742386 300.342468,210.080338 
	C296.182281,212.528809 292.052551,215.071030 287.711182,217.159454 
	C281.762512,220.021103 278.090668,224.655472 275.759949,231.080490 
M91.555725,268.949341 
	C100.022308,273.928802 108.471077,278.938904 116.961250,283.877808 
	C123.454826,287.655243 129.917999,287.520386 136.333511,283.567902 
	C140.019592,281.296906 143.799423,279.178436 147.494751,276.922028 
	C162.349625,267.851440 177.326416,267.770599 192.398712,276.312164 
	C196.886459,278.855377 201.266815,281.587494 205.735214,284.165680 
	C211.371857,287.417969 217.215225,287.665894 222.877640,284.491364 
	C231.735031,279.525635 240.537140,274.444641 249.168427,269.098846 
	C253.931198,266.149017 256.347748,261.582306 256.950623,255.835022 
	C257.564850,249.979797 256.625366,244.200653 256.832306,238.385406 
	C257.378845,223.028275 263.270111,210.684769 276.922546,202.734467 
	C281.671661,199.968857 286.561646,197.438919 291.248657,194.574478 
	C297.322815,190.862335 300.919647,185.664276 300.776642,178.173584 
	C300.601807,169.014786 300.640320,159.850037 300.716339,150.688919 
	C300.776001,143.504776 297.622162,138.231613 291.546448,134.643738 
	C286.672302,131.765427 281.712219,129.033020 276.802612,126.214355 
	C265.968018,119.994179 260.121735,110.349472 257.600708,98.370094 
	C255.929230,90.427383 257.362061,82.428192 257.020416,74.458763 
	C256.712402,67.274658 253.474976,62.121449 247.426300,58.584343 
	C239.952484,54.213844 232.400146,49.977364 224.936859,45.589195 
	C217.766693,41.373360 210.792374,41.470448 203.773361,45.982479 
	C200.274780,48.231480 196.567383,50.152851 192.997101,52.293575 
	C178.067123,61.245483 163.133209,61.257778 148.154449,52.418949 
	C143.708908,49.795692 139.244720,47.202610 134.752960,44.659485 
	C129.052292,41.431904 123.277832,41.512798 117.630615,44.716984 
	C109.232040,49.482265 100.875343,54.323502 92.561264,59.234722 
	C87.500862,62.223953 84.845871,66.775398 84.021385,72.613853 
	C83.433807,76.774727 83.299629,80.866493 83.762016,85.042297 
	C85.838989,103.799530 78.048134,118.694046 61.604122,127.737282 
	C57.227432,130.144196 52.865307,132.587448 48.598339,135.181549 
	C43.214500,138.454636 40.373615,143.369080 40.299820,149.661316 
	C40.186527,159.321289 40.307804,168.983795 40.255760,178.644806 
	C40.220318,185.224167 43.102730,190.219788 48.523689,193.676544 
	C52.730152,196.358856 57.116718,198.770660 61.502464,201.157089 
	C68.206665,204.805054 73.900375,209.457382 77.931480,216.085358 
	C83.658134,225.501175 84.740807,235.708466 83.701706,246.391357 
	C82.883728,254.800781 83.615540,262.766022 91.555725,268.949341 
z"/>
<path fill="#000000" opacity="1.000000" stroke="none" 
	d="
M211.087402,113.862228 
	C231.819000,130.629395 240.802811,157.762619 232.869049,182.712860 
	C224.561661,208.838074 206.499435,224.276947 179.076859,228.443207 
	C147.292831,233.272064 111.287201,212.663803 106.056725,172.773651 
	C101.113220,135.072052 127.832687,104.906883 161.564835,100.570442 
	C179.831345,98.222198 196.156204,102.640968 211.087402,113.862228 
M149.253067,206.287140 
	C164.129929,212.994843 178.845978,212.978485 193.390991,205.258972 
	C213.513138,194.579498 223.232162,169.106659 214.844818,148.339752 
	C205.491577,125.181290 183.941299,113.768539 159.553909,119.180405 
	C139.446320,123.642517 125.733604,139.803040 123.425591,159.650681 
	C121.283936,178.067749 131.122559,196.163788 149.253067,206.287140 
z"/>
</svg>