<svg version="1.1" id="Layer_1" xmlns="http://www.w3.org/2000/svg" xmlns:xlink="http://www.w3.org/1999/xlink" x="0px" y="0px"
	 width="100%" viewBox="0 0 336 256" enable-background="new 0 0 336 256" xml:space="preserve">
<path fill="#000000" opacity="1.000000" stroke="none" 
	d="
M172.111115,161.334747 
	C150.550217,159.721146 135.475296,149.277512 127.639786,129.715057 
	C119.631332,109.720802 123.418968,91.208435 138.402176,75.833054 
	C153.601181,60.236248 172.452972,56.609756 192.630753,63.824112 
	C212.228622,70.831131 223.019897,85.531921 225.434891,106.370193 
	C228.854645,135.878494 204.061493,163.514526 172.111115,161.334747 
M199.481079,89.035835 
	C198.006836,87.693069 196.623230,86.231499 195.043961,85.026360 
	C182.613739,75.540932 165.264008,76.105392 153.058716,86.338318 
	C141.879761,95.710754 138.434769,112.322411 144.974731,125.318939 
	C152.178406,139.634430 167.577896,146.660034 183.089554,142.781723 
	C206.540497,136.918411 216.142502,108.308006 199.481079,89.035835 
z"/>
<path fill="#000000" opacity="1.000000" stroke="none" 
	d="
M135.125854,191.954590 
	C166.068130,182.218842 196.172073,182.483582 225.285522,196.912689 
	C238.369247,203.397232 248.626343,212.854477 252.563461,227.722260 
	C253.262177,230.360748 253.386200,232.977783 253.323715,235.635406 
	C253.204803,240.691895 250.234116,244.083893 245.688309,244.487579 
	C240.667419,244.933426 236.296158,242.229630 236.012726,237.243607 
	C235.308182,224.849319 227.270172,218.224762 217.634521,213.021103 
	C200.162674,203.585571 181.294449,201.894226 161.878510,203.993423 
	C147.873718,205.507599 134.882462,209.771042 123.701302,218.564743 
	C118.313972,222.801758 114.698685,228.146240 114.031143,235.354675 
	C113.407227,242.092087 109.273003,245.310760 103.385162,244.413223 
	C98.139755,243.613617 95.480225,239.044525 96.292625,232.663483 
	C98.608978,214.469604 110.636673,204.078430 125.610909,196.086349 
	C128.536652,194.524811 131.701416,193.411163 135.125854,191.954590 
z"/>
<path fill="#000000" opacity="1.000000" stroke="none" 
	d="
M281.255249,73.695358 
	C279.603821,86.605103 274.823639,97.538315 265.501495,106.174179 
	C260.292480,110.999718 253.804459,110.171074 250.778854,104.400810 
	C248.361557,99.790680 250.278076,96.258644 253.589539,92.826004 
	C266.123291,79.833595 266.965942,61.910301 255.845367,48.504417 
	C245.147598,35.608231 225.898788,33.038784 212.138123,42.672180 
	C211.456650,43.149258 210.781265,43.635666 210.114761,44.133419 
	C204.504410,48.323261 199.554260,48.219624 196.064484,43.834721 
	C192.841080,39.784512 194.124847,34.260250 199.283478,29.982626 
	C227.940002,6.220236 273.478973,22.748808 280.304779,59.346046 
	C281.165924,63.963081 281.461426,68.570190 281.255249,73.695358 
z"/>
<path fill="#000000" opacity="1.000000" stroke="none" 
	d="
M117.136871,18.805466 
	C129.530823,19.116217 140.590240,22.067348 150.084442,29.682730 
	C155.735992,34.215866 156.990692,39.259892 153.598694,43.794746 
	C150.195160,48.345036 145.055725,48.390545 139.161880,43.922558 
	C121.400604,30.458168 96.776535,36.893997 88.571411,57.432362 
	C83.791000,69.398300 85.933052,80.601044 94.049194,90.613998 
	C95.094101,91.903114 96.398277,92.981171 97.452789,94.263542 
	C100.877602,98.428413 100.736435,103.391685 97.166641,106.823143 
	C93.725418,110.131012 89.035515,110.246719 85.009186,106.765160 
	C75.650978,98.673119 70.292763,88.200745 68.856270,76.104538 
	C65.696274,49.495068 81.522446,26.845829 107.348404,20.349665 
	C110.394188,19.583538 113.566818,19.321701 117.136871,18.805466 
z"/>
<path fill="#000000" opacity="1.000000" stroke="none" 
	d="
M73.301186,173.296967 
	C64.815758,178.752762 58.744415,185.286545 58.139847,195.756729 
	C57.875324,200.337830 53.423649,203.508148 48.999794,203.211502 
	C44.418194,202.904297 40.830032,199.259415 40.758972,194.145874 
	C40.609207,183.368439 45.195843,174.427582 52.589119,166.972305 
	C62.344902,157.134705 74.519112,151.418686 87.722252,147.889725 
	C93.850388,146.251770 98.119003,148.707214 99.594452,153.889542 
	C101.020821,158.899490 98.317589,163.220108 92.332687,165.018250 
	C85.764832,166.991516 79.444504,169.470093 73.301186,173.296967 
z"/>
<path fill="#000000" opacity="1.000000" stroke="none" 
	d="
M308.237366,197.796249 
	C305.882751,201.720993 302.789307,203.862976 298.532562,202.950073 
	C294.147308,202.009583 291.857269,199.019608 291.450348,194.453949 
	C290.566986,184.542847 284.304352,178.302231 276.502136,173.262375 
	C270.877380,169.629074 264.716217,167.145432 258.283691,165.309235 
	C251.946091,163.500137 248.581665,158.850525 249.903381,153.816513 
	C251.260117,148.649170 256.440308,146.342484 262.871033,148.149918 
	C276.548737,151.994156 288.908783,158.108994 298.668213,168.799652 
	C304.845642,175.566544 308.050903,183.576370 309.161194,192.545990 
	C309.371338,194.243851 309.018250,195.854431 308.237366,197.796249 
z"/>
</svg>