<svg version="1.1" id="Layer_1" xmlns="http://www.w3.org/2000/svg" xmlns:xlink="http://www.w3.org/1999/xlink" x="0px" y="0px"
	 width="100%" viewBox="0 0 288 304" enable-background="new 0 0 288 304" xml:space="preserve">
<path fill="#000000" opacity="1.000000" stroke="none" 
	d="
M98.999931,291.319885 
	C87.027649,290.901672 75.513260,292.240479 64.072777,290.491669 
	C45.357063,287.630768 32.883835,274.292328 32.796204,255.510742 
	C32.534172,199.353180 32.533020,143.192749 32.802753,87.035240 
	C32.899055,66.985954 48.250114,52.410660 68.810219,51.723820 
	C73.638023,51.562538 78.477600,51.557446 83.306259,51.686375 
	C86.522850,51.772266 87.827904,50.471188 87.746521,47.260162 
	C87.628357,42.598076 87.510483,37.912636 87.834106,33.267925 
	C88.379295,25.443092 95.424721,21.495163 101.615250,25.289991 
	C104.496826,27.056416 105.481483,29.688667 105.466110,32.903206 
	C105.442215,37.901382 105.541046,42.900982 105.455391,47.897709 
	C105.408089,50.657032 106.505089,51.700783 109.316818,51.694172 
	C137.646057,51.627567 165.975586,51.627342 194.304825,51.693928 
	C197.506393,51.701450 198.836884,50.522392 198.738998,47.284832 
	C198.603134,42.790451 198.633835,38.284111 198.788177,33.789589 
	C198.988876,27.945692 202.885651,23.746189 207.852554,23.773157 
	C212.988876,23.801044 216.283890,27.724155 216.390945,33.964993 
	C216.468079,38.461773 216.714005,42.967026 216.524796,47.453320 
	C216.380692,50.869797 217.871338,51.692596 220.971191,51.714230 
	C228.281601,51.765244 235.586746,51.355747 242.894897,52.595940 
	C257.928253,55.147087 269.908936,68.076103 271.431824,83.220459 
	C272.184784,90.708420 272.260712,98.174232 272.263763,105.660988 
	C272.282593,151.821259 272.251770,197.981552 272.283539,244.141800 
	C272.288025,250.649597 272.246643,257.187103 270.763367,263.512390 
	C266.649902,281.053711 252.853500,291.166290 232.480133,291.242493 
	C188.153915,291.408203 143.826736,291.309875 98.999931,291.319885 
M223.472000,273.653961 
	C228.806976,273.789917 234.107605,273.547943 239.400085,272.730713 
	C246.227753,271.676422 252.579269,265.859619 253.517426,259.046661 
	C254.174057,254.278183 254.592178,249.436234 254.603226,244.625931 
	C254.689713,206.962982 254.654907,169.299759 254.649887,131.636612 
	C254.649017,125.080391 254.632462,125.013512 247.932434,125.009720 
	C219.935760,124.993866 191.939041,125.025085 163.942352,125.032631 
	C128.779953,125.042114 93.617561,125.035622 58.455181,125.058510 
	C50.324974,125.063797 50.325058,125.105766 50.324905,133.412598 
	C50.324749,142.078445 50.322849,150.744293 50.324512,159.410141 
	C50.330471,190.407211 50.277615,221.404480 50.373249,252.401276 
	C50.412613,265.160065 56.026779,271.405273 68.544006,272.962219 
	C72.002266,273.392365 75.509201,273.616028 78.994095,273.619263 
	C126.822899,273.663788 174.651764,273.653015 223.472000,273.653961 
M223.480225,69.331497 
	C176.490570,69.332329 129.500916,69.331680 82.511261,69.336670 
	C78.512276,69.337097 74.505646,69.223152 70.515694,69.423553 
	C57.321438,70.086250 50.562977,77.167534 50.346973,90.425514 
	C50.292690,93.757248 50.617275,97.120575 50.266911,100.416138 
	C49.736645,105.403885 51.452362,106.991913 56.624249,106.965775 
	C96.280647,106.765282 135.938568,106.869820 175.596024,106.875381 
	C200.090271,106.878822 224.585129,106.785149 249.078171,106.956863 
	C253.491226,106.987801 254.929733,105.555504 254.745377,101.192329 
	C254.527466,96.034767 254.296722,90.895668 253.780670,85.754509 
	C252.949417,77.473366 247.566879,71.696022 239.404449,70.182358 
	C234.434311,69.260681 229.460693,69.380615 223.480225,69.331497 
z"/>
<path fill="#000000" opacity="1.000000" stroke="none" 
	d="
M119.012482,219.987762 
	C114.289444,215.261169 109.760223,210.838913 105.360947,206.290970 
	C100.941154,201.721802 100.636780,196.883636 104.340057,192.994400 
	C107.707115,189.458237 113.481514,189.606277 117.732132,193.654907 
	C123.397743,199.051254 129.004013,204.524872 134.365005,210.220154 
	C137.280121,213.317078 139.209305,213.511047 142.364563,210.278717 
	C156.203964,196.101120 170.310394,182.183929 184.348007,168.200424 
	C185.874283,166.680038 187.432343,165.104675 189.235962,163.967804 
	C192.921127,161.644852 198.046326,162.389938 200.602936,165.608383 
	C203.398193,169.127228 203.611710,173.005814 200.917984,176.655243 
	C199.349731,178.779877 197.321732,180.574142 195.441650,182.458221 
	C179.208496,198.725677 162.967896,214.985733 146.716339,231.234818 
	C140.591980,237.358215 136.397629,237.333740 130.218079,231.185394 
	C126.558334,227.544113 122.914345,223.887009 119.012482,219.987762 
z"/>
</svg>