<svg version="1.1" id="Layer_1" xmlns="http://www.w3.org/2000/svg" xmlns:xlink="http://www.w3.org/1999/xlink" x="0px" y="0px"
	 width="100%" viewBox="0 0 352 304" enable-background="new 0 0 352 304" xml:space="preserve">
<path fill="#000000" opacity="1.000000" stroke="none" 
	d="
M255.970551,294.302429 
	C223.808380,293.815643 201.520920,266.315918 207.581085,235.020203 
	C208.284683,231.386612 207.584793,229.439636 204.009842,227.686157 
	C180.385590,216.098846 156.868698,204.290833 133.395187,192.400040 
	C130.257675,190.810730 128.715195,191.391571 126.348244,193.965988 
	C112.091286,209.472488 94.520111,215.029831 74.321312,208.629822 
	C54.764011,202.433044 43.611744,188.449265 40.548557,168.071121 
	C37.285439,146.362976 50.325058,125.777695 67.413361,117.841553 
	C87.813858,108.367172 110.713165,112.565742 125.428665,128.876511 
	C128.397751,132.167465 130.542725,132.871658 134.608551,130.794281 
	C157.593124,119.050735 180.690262,107.524460 203.854950,96.139641 
	C207.415634,94.389664 208.185013,92.274666 207.533981,88.667473 
	C201.517899,55.333969 226.016052,27.665409 259.635132,29.724846 
	C285.301971,31.297148 305.201752,53.605213 304.470673,79.986412 
	C303.893188,100.824486 291.255646,118.248352 271.731995,125.124565 
	C252.808899,131.789261 231.556900,126.129990 218.256958,110.619682 
	C216.085068,108.086845 214.409607,107.783112 211.523972,109.239838 
	C187.741119,121.245872 163.905792,133.148392 140.043579,144.996124 
	C137.242462,146.386902 136.146072,147.829147 137.036850,151.201492 
	C138.978394,158.551834 138.846359,166.067001 136.872864,173.420670 
	C136.145889,176.129562 137.066193,177.462830 139.296646,178.574097 
	C163.594757,190.680099 187.913132,202.746460 212.131638,215.009949 
	C215.655334,216.794235 216.857925,214.586716 218.619156,212.623306 
	C240.056900,188.724609 278.230011,190.923172 296.026581,217.387466 
	C306.876831,233.522308 307.759521,250.904480 298.910217,268.071716 
	C290.170532,285.026306 275.367462,293.277252 255.970551,294.302429 
M222.097549,84.491463 
	C225.358963,103.435173 243.907333,116.168335 262.235992,112.045837 
	C281.910339,107.620667 293.612549,88.697533 288.437988,69.675644 
	C283.722137,52.340050 265.704956,41.523521 248.062332,45.436298 
	C231.015213,49.217007 219.038956,66.709503 222.097549,84.491463 
M63.233040,139.748474 
	C57.909008,146.501419 55.017525,153.996017 55.226963,162.778168 
	C55.566387,177.011185 64.800804,189.768265 78.568596,194.370575 
	C91.622292,198.734146 107.196518,194.117188 115.515198,183.417831 
	C124.458443,171.915176 125.538727,155.881378 118.160416,144.156998 
	C105.975929,124.795448 80.298019,122.461494 63.233040,139.748474 
M225.167480,260.316711 
	C233.992935,277.314209 254.082184,284.034485 270.749939,275.564941 
	C287.591125,267.007294 294.378662,246.817062 286.077087,229.972733 
	C277.939362,213.460785 257.873810,206.548935 240.926117,214.419815 
	C224.076782,222.245010 216.934540,242.343414 225.167480,260.316711 
z"/>
</svg>