<svg version="1.1" id="Layer_1" xmlns="http://www.w3.org/2000/svg" xmlns:xlink="http://www.w3.org/1999/xlink" x="0px" y="0px"
	 width="100%" viewBox="0 0 320 320" enable-background="new 0 0 320 320" xml:space="preserve">
<path fill="#000000" opacity="1.000000" stroke="none" 
	d="
M156.999634,303.316589 
	C138.006516,303.299377 119.512352,303.393280 101.020790,303.215820 
	C93.165131,303.140472 85.375847,302.220978 78.528984,297.758484 
	C66.945152,290.208618 61.666843,279.319702 61.665112,265.683228 
	C61.656998,201.873276 61.629631,138.063309 61.673878,74.253380 
	C61.690002,50.996655 75.857277,36.109459 99.043678,35.796455 
	C127.528000,35.411938 156.023224,35.520462 184.509933,35.801556 
	C194.168854,35.896862 202.757294,39.753613 209.423630,46.893944 
	C227.833405,66.612709 246.154160,86.415871 264.363556,106.319748 
	C270.440918,112.962646 273.275024,121.123169 273.286316,130.092834 
	C273.342529,174.743011 273.357056,219.393417 273.255157,264.043457 
	C273.229736,275.184235 270.566498,285.393250 261.944122,293.420013 
	C254.263626,300.569977 245.131927,303.275238 234.970474,303.292694 
	C209.146927,303.337067 183.323257,303.314026 156.999634,303.316589 
M254.145615,273.311554 
	C255.125458,268.073029 255.699509,262.811493 255.684006,257.459686 
	C255.617935,234.638809 255.654541,211.817642 255.653671,188.996567 
	C255.653076,173.171738 255.625458,157.346817 255.675522,141.522156 
	C255.685104,138.492859 255.337524,136.568329 251.372589,136.586060 
	C232.243042,136.671585 213.110992,136.548767 193.982162,136.311890 
	C182.014206,136.163666 172.951401,127.028069 172.686493,114.987495 
	C172.269211,96.021507 171.645981,77.052895 172.385529,58.082008 
	C172.518829,54.662640 171.213867,53.272617 167.739044,53.323101 
	C158.745789,53.453770 149.746475,53.219627 140.754852,53.397331 
	C125.949234,53.689941 111.110909,52.408737 96.338699,54.153355 
	C85.585480,55.423325 79.823456,61.787056 79.370781,72.668297 
	C79.266975,75.163399 79.298454,77.664879 79.298225,80.163429 
	C79.292892,139.964615 79.290955,199.765793 79.292496,259.566986 
	C79.292557,262.065521 79.258034,264.567261 79.366150,267.062042 
	C79.817551,277.477325 86.753029,284.235626 97.131638,284.845642 
	C121.422325,286.273407 145.725845,285.339600 170.023209,285.422577 
	C190.820847,285.493591 211.618958,285.412994 232.416733,285.454620 
	C241.632751,285.473053 249.623138,283.326050 254.145615,273.311554 
M230.519913,95.962578 
	C220.233368,84.869156 209.994461,73.730888 199.625732,62.714825 
	C197.128296,60.061466 194.997070,56.702747 190.566757,55.937771 
	C190.445831,57.772293 190.265884,59.240211 190.265030,60.708237 
	C190.255188,77.505966 190.238251,94.303848 190.300110,111.101402 
	C190.323929,117.569862 191.438980,118.719475 197.859726,118.745087 
	C213.992004,118.809433 230.124786,118.777016 246.257217,118.732498 
	C247.465912,118.729164 248.965546,119.273415 250.021866,117.244545 
	C243.752975,110.399506 237.379990,103.440826 230.519913,95.962578 
z"/>
<path fill="#000000" opacity="1.000000" stroke="none" 
	d="
M127.356407,206.254150 
	C120.270203,205.259079 116.570717,201.784576 116.791275,196.760208 
	C117.017082,191.616409 120.868088,188.574066 127.737381,188.172668 
	C129.396866,188.075668 131.064804,188.109604 132.728882,188.107178 
	C139.382797,188.097473 146.036697,188.093185 152.690613,188.094208 
	C169.823746,188.096832 186.956894,188.102005 204.090027,188.111343 
	C205.254578,188.111969 206.422821,188.104233 207.583038,188.187775 
	C214.225159,188.666061 217.777008,191.880402 217.794769,197.392685 
	C217.811554,202.602692 213.705093,206.182724 207.199585,206.213486 
	C188.893005,206.300034 170.585800,206.252518 152.278839,206.256271 
	C144.123932,206.257935 135.969025,206.255768 127.356407,206.254150 
z"/>
<path fill="#000000" opacity="1.000000" stroke="none" 
	d="
M175.822998,247.419357 
	C159.405762,247.432907 143.430847,247.454269 127.455925,247.455307 
	C120.834663,247.455734 116.949425,244.294434 116.799126,238.842438 
	C116.656036,233.651840 120.844589,229.766144 127.187569,229.746216 
	C154.146576,229.661575 181.106186,229.651840 208.065109,229.748947 
	C214.218750,229.771103 217.988693,233.790222 217.774994,239.422592 
	C217.589722,244.305496 214.088638,247.349091 208.215652,247.396713 
	C197.566177,247.483047 186.915482,247.419785 175.822998,247.419357 
z"/>
</svg>