<svg version="1.1" id="Layer_1" xmlns="http://www.w3.org/2000/svg" xmlns:xlink="http://www.w3.org/1999/xlink" x="0px" y="0px"
	 width="100%" viewBox="0 0 272 288" enable-background="new 0 0 272 288" xml:space="preserve">
<path fill="#000000" opacity="1.000000" stroke="none" 
	d="
M270.041016,178.000000 
	C270.008026,195.820816 270.099823,213.136978 269.386688,230.456467 
	C268.600403,249.551727 253.470047,263.222687 231.976654,263.276855 
	C185.651413,263.393585 139.325531,263.390167 93.000298,263.277069 
	C82.692780,263.251892 72.345520,264.173676 62.071777,262.446930 
	C46.134624,259.768402 35.010666,248.191315 33.666592,232.209534 
	C31.653065,208.267502 32.996025,184.262360 32.807457,160.287231 
	C32.567631,129.794708 32.806885,99.298622 32.751022,68.804222 
	C32.741821,63.781055 33.127804,58.784561 34.077988,53.912247 
	C37.191025,37.949280 50.338818,26.838623 67.199387,26.774620 
	C123.188965,26.562078 179.180984,26.506439 235.169724,26.816299 
	C255.339020,26.927921 268.729187,41.446636 269.406891,61.554138 
	C270.709442,100.201630 269.619202,138.853226 270.041016,178.000000 
M103.323120,150.499893 
	C103.324097,180.992142 103.431946,211.485123 103.221298,241.975922 
	C103.186012,247.083374 104.954285,248.611420 109.823174,248.599899 
	C148.975250,248.507233 188.127945,248.651367 227.279800,248.524063 
	C232.384048,248.507462 237.748581,248.540192 242.529480,246.479919 
	C251.164932,242.758591 254.657288,235.608200 254.659943,226.468185 
	C254.669189,194.476059 254.711655,162.483917 254.715820,130.491791 
	C254.718750,107.997330 254.744049,85.502548 254.631866,63.008549 
	C254.578171,52.241032 248.218338,43.762043 239.321762,42.411789 
	C235.053650,41.764011 230.765747,41.293789 226.404266,41.302338 
	C187.580521,41.378437 148.756577,41.346474 109.932701,41.357273 
	C103.341347,41.359108 103.328003,41.383137 103.326935,48.024536 
	C103.321495,81.849648 103.323540,115.674767 103.323120,150.499893 
M48.093117,138.500000 
	C48.100952,141.663239 48.109989,144.826492 48.116432,147.989731 
	C48.171352,174.960480 48.143097,201.931778 48.326130,228.901657 
	C48.388535,238.097198 54.625244,246.193863 62.861763,247.368561 
	C69.241234,248.278412 75.704369,248.916031 82.259583,248.375259 
	C86.356468,248.037277 88.346802,246.850754 88.229927,242.492371 
	C87.855690,228.535751 88.531013,214.582687 88.282440,200.610580 
	C88.013451,185.490768 88.012741,170.346085 88.428444,155.202576 
	C88.925529,137.093933 88.564667,118.961571 88.564064,100.839478 
	C88.563446,82.557892 88.540901,64.276314 88.548615,45.994736 
	C88.549858,43.041874 87.567070,41.234364 84.202309,41.341476 
	C79.711174,41.484436 75.193642,41.157780 70.722168,41.494278 
	C54.232792,42.735191 48.378887,48.841843 48.219360,65.576187 
	C47.990837,89.549019 48.116787,113.525230 48.093117,138.500000 
z"/>
<path fill="#000000" opacity="1.000000" stroke="none" 
	d="
M165.004395,81.746078 
	C177.994522,81.747597 190.485657,81.749893 202.976761,81.772385 
	C204.472290,81.775078 206.010086,81.684937 207.454926,81.987801 
	C211.472885,82.830009 214.182114,85.253189 214.155945,89.489883 
	C214.129791,93.721359 211.438873,96.146553 207.372238,96.910477 
	C205.917023,97.183846 204.386642,97.104515 202.890533,97.105400 
	C187.068558,97.114723 171.246567,97.110298 155.424591,97.100616 
	C154.093658,97.099800 152.742752,97.167809 151.435440,96.973328 
	C146.835190,96.288979 143.665985,92.939400 143.868195,89.108719 
	C144.077301,85.147316 147.307861,82.083351 152.016785,81.827026 
	C156.168701,81.601021 160.341705,81.762550 165.004395,81.746078 
z"/>
<path fill="#000000" opacity="1.000000" stroke="none" 
	d="
M169.000153,138.376038 
	C163.004959,138.372269 157.508286,138.444092 152.014847,138.342300 
	C147.188293,138.252853 143.763138,134.982071 143.861130,130.787094 
	C143.958206,126.631165 147.032303,123.729156 151.910065,123.707039 
	C169.894257,123.625504 187.879257,123.630806 205.863510,123.707741 
	C211.025406,123.729813 214.232834,126.685852 214.247696,130.982712 
	C214.263107,135.437820 210.933121,138.316818 205.469131,138.343445 
	C193.479691,138.401871 181.489792,138.370712 169.000153,138.376038 
z"/>
</svg>