<svg version="1.1" id="Layer_1" xmlns="http://www.w3.org/2000/svg" xmlns:xlink="http://www.w3.org/1999/xlink" x="0px" y="0px"
	 width="100%" viewBox="0 0 304 256" enable-background="new 0 0 304 256" xml:space="preserve">
<path fill="#000000" opacity="1.000000" stroke="none" 
	d="
M96.298630,204.718933 
	C77.782829,189.028824 61.012890,172.185074 47.447250,152.371552 
	C34.442635,133.377441 25.190769,112.824165 24.063324,89.544067 
	C22.635677,60.065247 33.441814,28.204811 64.609756,14.557990 
	C93.995789,1.691372 129.607391,10.659183 150.819412,36.398415 
	C152.723877,38.709351 154.572952,41.032269 157.712311,42.436138 
	C160.991211,38.720310 164.163849,34.912224 167.557556,31.312542 
	C195.118347,2.078827 242.537170,0.967993 269.715118,29.070879 
	C282.580658,42.374237 288.026520,58.930408 289.307220,77.042839 
	C291.704071,110.940063 277.637299,138.911270 257.244324,164.382797 
	C234.510971,192.777573 206.509796,215.240921 176.179214,234.965683 
	C172.132126,237.597610 167.858856,239.892334 163.894287,242.637787 
	C159.163788,245.913635 154.744827,245.577087 149.941132,242.746567 
	C131.087463,231.637192 113.392899,218.912170 96.298630,204.718933 
M240.173660,27.317099 
	C223.857910,21.687344 208.098389,22.997807 192.903168,31.143257 
	C180.583389,37.747318 171.674896,47.596455 165.638092,60.104458 
	C163.856430,63.795998 162.232285,67.328484 157.205719,67.376587 
	C152.153061,67.424942 149.762802,64.519333 148.089081,60.314236 
	C147.293762,58.316078 146.120834,56.460415 145.043579,54.583469 
	C132.807571,33.264233 108.319382,20.837406 84.264244,24.494839 
	C57.194016,28.610697 41.452744,50.181095 39.330158,77.953506 
	C37.544224,101.321136 45.464771,121.872040 58.143402,140.818359 
	C81.194992,175.265488 112.914772,200.411606 146.956299,223.102264 
	C153.871521,227.711670 159.083130,228.389893 166.471115,223.392365 
	C200.613434,200.297104 232.801285,175.240143 255.826340,140.298523 
	C269.468506,119.595901 277.702942,97.349693 273.657562,71.998856 
	C270.399445,51.581738 260.642578,35.888126 240.173660,27.317099 
z"/>
</svg>