<svg version="1.1" id="Layer_1" xmlns="http://www.w3.org/2000/svg" xmlns:xlink="http://www.w3.org/1999/xlink" x="0px" y="0px"
	 width="100%" viewBox="0 0 208 144" enable-background="new 0 0 208 144" xml:space="preserve">
<path fill="#000000" opacity="1.000000" stroke="none" 
	d="
M97.610855,36.609924 
	C105.316978,29.231529 112.746315,22.074728 120.255630,15.002851 
	C124.526810,10.980473 128.929932,10.685563 132.203323,14.004952 
	C135.391037,17.237459 135.054810,21.780172 130.876648,25.910561 
	C115.486008,41.125252 100.067009,56.313351 84.470345,71.315666 
	C81.522552,74.151131 81.692604,75.880730 84.453094,78.549774 
	C99.410934,93.012085 114.263908,107.583092 129.116684,122.153687 
	C134.976517,127.902199 135.794342,132.028336 131.997299,135.770432 
	C128.159256,139.552994 124.433479,138.635849 118.377083,132.849274 
	C101.160759,116.399963 84.073662,99.821281 67.375496,82.843880 
	C61.073669,76.436676 61.010906,73.277954 67.337036,66.923256 
	C77.328880,56.886292 87.355598,46.884026 97.610855,36.609924 
z"/>
</svg>