<svg version="1.1" id="Layer_1" xmlns="http://www.w3.org/2000/svg" xmlns:xlink="http://www.w3.org/1999/xlink" x="0px" y="0px"
	 width="100%" viewBox="0 0 192 160" enable-background="new 0 0 192 160" xml:space="preserve">
<path fill="#000000" opacity="1.000000" stroke="none" 
	d="
M102.195694,87.902702 
	C94.950768,99.128616 84.144501,103.818771 73.074440,100.816422 
	C61.871510,97.778038 53.922756,88.189499 53.759499,76.871353 
	C53.600616,65.856476 58.664562,57.693432 68.518204,52.744553 
	C77.595901,48.185387 89.348701,49.842251 96.919296,56.962337 
	C104.794334,64.368759 107.052994,73.484070 103.853462,83.861763 
	C103.463120,85.127846 102.859741,86.328232 102.195694,87.902702 
M65.085327,90.417976 
	C71.009453,95.951843 77.793236,97.943390 85.696159,95.493179 
	C96.102806,92.266708 102.148109,80.704872 99.007652,69.969704 
	C95.914383,59.395840 84.990425,53.399002 74.371574,56.131336 
	C60.363110,59.735851 53.433254,77.792305 65.085327,90.417976 
z"/>
<path fill="#000000" opacity="1.000000" stroke="none" 
	d="
M111.612885,138.296753 
	C109.795921,130.694565 105.092072,125.928497 98.498795,123.114235 
	C84.882217,117.302147 71.349693,117.471169 58.074551,124.382668 
	C52.360413,127.357666 49.146809,132.193436 47.631611,138.300919 
	C47.201599,140.034210 47.252499,142.465897 44.635296,141.953339 
	C42.155048,141.467606 42.157894,139.248459 42.429317,137.114868 
	C43.350082,129.876846 47.943413,125.022003 53.463413,121.151985 
	C68.003029,110.958427 92.539169,111.422577 106.774384,121.964546 
	C112.170929,125.960991 116.158440,130.951187 116.446465,138.080353 
	C116.508293,139.610657 116.562294,141.326828 114.662865,141.719681 
	C112.358398,142.196274 111.954422,140.405258 111.612885,138.296753 
z"/>
<path fill="#000000" opacity="1.000000" stroke="none" 
	d="
M134.900604,92.916618 
	C136.840683,95.060692 138.297485,94.273193 139.761353,92.792145 
	C141.747360,90.782806 143.747955,88.784851 145.812637,86.857368 
	C147.180939,85.579971 148.802658,84.234550 150.524811,86.114868 
	C152.066589,87.798248 150.679276,89.234596 149.460373,90.365288 
	C146.670197,92.953522 143.783279,95.437462 140.903214,97.992516 
	C143.629379,102.388275 146.974426,104.678627 149.537125,107.653297 
	C150.773132,109.088020 152.173813,110.595383 150.281082,112.340843 
	C148.626801,113.866402 147.212692,112.477158 145.932846,111.426575 
	C145.164688,110.796028 144.488770,110.052170 143.779282,109.351265 
	C137.157257,102.809357 137.217422,102.871147 130.307251,109.491386 
	C128.704468,111.026917 126.968742,114.657600 124.432426,112.288696 
	C121.660629,109.699852 125.048363,107.611183 126.783409,105.823563 
	C134.335632,98.042473 134.348373,100.083298 126.747612,92.284790 
	C126.167542,91.689621 125.566994,91.113739 125.001579,90.505089 
	C123.651581,89.051826 122.688736,87.324173 124.349876,85.696030 
	C126.001656,84.077057 127.416641,85.641518 128.607025,86.748764 
	C130.675140,88.672470 132.645752,90.701004 134.900604,92.916618 
z"/>
</svg>