<svg version="1.1" id="Layer_1" xmlns="http://www.w3.org/2000/svg" xmlns:xlink="http://www.w3.org/1999/xlink" x="0px" y="0px"
	 width="100%" viewBox="0 0 272 256" enable-background="new 0 0 272 256" xml:space="preserve">
<path fill="#000000" opacity="1.000000" stroke="none" 
	d="
M59.170044,18.686298 
	C84.805351,18.686167 109.962654,18.765547 135.119049,18.648083 
	C145.021255,18.601845 153.326324,22.076483 160.243271,28.993820 
	C189.216324,57.968502 218.232727,86.900490 247.081604,115.998444 
	C261.837524,130.881744 261.412964,150.223526 246.517593,165.078461 
	C221.747620,189.781250 197.066681,214.573303 172.294373,239.273758 
	C157.067993,254.455978 139.148666,254.509399 123.876282,239.303177 
	C94.953842,210.506012 66.168961,181.570694 37.257114,152.762833 
	C30.256372,145.787262 26.803511,137.425446 26.775063,127.672394 
	C26.701204,102.349258 26.661163,77.025291 26.787180,51.702557 
	C26.878710,33.309879 40.401974,19.462030 59.170044,18.686298 
M164.780594,231.290436 
	C189.635437,206.429001 214.558624,181.635361 239.312668,156.673965 
	C249.732986,146.166351 249.559799,134.009491 239.205231,123.641891 
	C210.358871,94.759132 181.459564,65.929237 152.629715,37.030010 
	C147.518372,31.906363 141.423477,29.360115 134.275497,29.348467 
	C109.949310,29.308828 85.622963,29.361658 61.296768,29.321812 
	C47.522720,29.299248 37.757969,39.405205 37.938999,52.450798 
	C38.288059,77.604713 38.121082,102.767204 37.999043,127.925308 
	C37.966167,134.702316 40.356258,140.095673 45.116993,144.841873 
	C74.020744,173.657364 102.863998,202.533783 131.662659,231.454376 
	C142.468185,242.305664 153.002197,242.497925 164.780594,231.290436 
z"/>
<path fill="#000000" opacity="1.000000" stroke="none" 
	d="
M82.131020,101.933479 
	C74.971031,94.625191 73.339050,86.148308 77.303505,78.034637 
	C80.872887,70.729515 89.186760,65.947365 96.813950,66.812218 
	C106.304565,67.888367 112.619232,73.675163 114.919083,83.403839 
	C116.555885,90.327736 112.803520,99.226578 106.501053,103.367424 
	C98.885269,108.371147 90.366142,107.950188 82.131020,101.933479 
M102.602539,81.836388 
	C99.885956,78.058823 96.136856,77.272850 91.971519,78.570648 
	C88.673676,79.598152 86.842827,82.188103 86.376831,85.585045 
	C85.815109,89.679817 87.590202,92.836906 91.086250,94.719391 
	C94.396423,96.501770 97.839668,96.354912 100.815338,93.684029 
	C104.358101,90.504158 105.141624,86.758141 102.602539,81.836388 
z"/>
</svg>