<svg version="1.1" id="Layer_1" xmlns="http://www.w3.org/2000/svg" xmlns:xlink="http://www.w3.org/1999/xlink" x="0px" y="0px"
	 width="100%" viewBox="0 0 165 130" enable-background="new 0 0 165 130" xml:space="preserve">
<path fill="none" opacity="1.000000" stroke="#000000" stroke-linecap="round" stroke-linejoin="round" stroke-width="4.000000"
	d="
M103.500000,112.500000 
	C101.772957,99.241211 92.696899,90.120125 78.490929,88.062637 
	C67.085442,86.410759 56.110783,87.506821 45.943668,93.910561 
	C39.772728,97.797333 35.674076,102.609261 35.000000,110.000000 
"/>
<path fill="none" opacity="1.000000" stroke="#000000" stroke-linecap="round" stroke-linejoin="round" stroke-width="4.000000"
	d="
M113.500000,64.500000 
	C123.574280,54.921722 123.187546,40.577152 113.500000,31.500000 
"/>
<path fill="none" opacity="1.000000" stroke="#000000" stroke-linecap="round" stroke-linejoin="round" stroke-width="4.000000"
	d="
M126.500000,18.500000 
	C130.991867,23.921410 135.149780,29.623125 136.945343,36.514240 
	C140.788040,51.262001 137.725037,64.395309 127.000000,75.500000 
"/>
<path fill="none" opacity="1.000000" stroke="#000000" stroke-linecap="round" stroke-linejoin="round" stroke-width="4.000000"
	d="
M65.500000,25.000000 
	C57.367329,27.058270 50.684307,31.491653 48.168373,39.552551 
	C44.638008,50.863647 46.941872,64.346779 62.974758,69.085403 
	C70.576141,71.332039 82.890121,69.170349 88.073265,60.544022 
	C93.005180,52.335812 93.276978,43.016090 87.563225,34.457790 
	C82.282806,26.548542 74.875061,24.300293 66.000000,25.000000 
"/>
</svg>