<svg version="1.1" id="Layer_1" xmlns="http://www.w3.org/2000/svg" xmlns:xlink="http://www.w3.org/1999/xlink" x="0px" y="0px"
	 width="100%" viewBox="0 0 160 160" enable-background="new 0 0 160 160" xml:space="preserve">
<path fill="#000000" opacity="1.000000" stroke="none" 
	d="
M82.669342,44.997932 
	C92.328545,50.529194 97.516968,58.500130 96.810425,69.325256 
	C96.113037,80.010292 90.541191,87.800644 80.476646,91.873596 
	C70.043625,96.095665 57.837860,92.581688 50.823128,83.629166 
	C44.146263,75.107849 43.676197,62.527798 49.706150,53.735970 
	C56.322113,44.089714 67.507965,40.109909 78.578468,43.485443 
	C79.846657,43.872128 81.079102,44.376003 82.669342,44.997932 
M83.656578,84.236671 
	C90.642143,78.041718 93.480621,70.550743 90.542984,61.408520 
	C87.135742,50.804813 75.727547,45.094856 64.918236,48.460384 
	C54.475426,51.711803 48.538704,62.819607 51.410088,73.363968 
	C54.545540,84.878036 69.156158,93.994576 83.656578,84.236671 
z"/>
<path fill="#000000" opacity="1.000000" stroke="none" 
	d="
M33.863480,130.772980 
	C34.584396,122.835304 38.715137,117.448326 44.763546,113.329117 
	C59.882683,103.032349 83.689468,103.352684 98.506439,114.061363 
	C103.535507,117.696030 107.168633,122.343338 108.202133,128.624649 
	C108.522278,130.570404 108.824715,133.073395 106.296829,133.654938 
	C103.493629,134.299789 103.221512,131.806030 102.934212,129.817673 
	C102.042786,123.648300 98.043419,119.756691 93.135353,116.648705 
	C80.645073,108.739357 59.674000,109.301834 47.553825,117.769333 
	C43.162224,120.837425 39.879169,124.650528 39.262894,130.233124 
	C39.091434,131.786285 38.725857,133.359314 36.980911,133.707977 
	C35.141174,134.075607 34.332123,132.751160 33.863480,130.772980 
z"/>
<path fill="#000000" opacity="1.000000" stroke="none" 
	d="
M132.898361,90.898239 
	C128.888626,94.906624 125.019318,98.563179 121.404640,102.456154 
	C118.702606,105.366234 116.399155,105.815514 113.603462,102.598373 
	C111.320816,99.971619 108.647438,97.688484 106.264488,95.143288 
	C104.784286,93.562294 101.864868,91.818954 104.437782,89.482925 
	C106.767593,87.367607 108.660591,89.990860 110.238228,91.575363 
	C112.452980,93.799736 114.490372,96.200691 117.190041,99.171432 
	C121.222412,95.141251 124.683151,91.677605 128.149399,88.219460 
	C131.206909,85.169098 134.237228,82.090256 137.347580,79.094620 
	C138.633453,77.856194 140.120728,76.136719 142.009140,77.888023 
	C144.220413,79.938759 142.188736,81.482948 140.874588,82.869728 
	C138.361572,85.521652 135.730316,88.061546 132.898361,90.898239 
z"/>
</svg>