<svg version="1.1" id="Layer_1" xmlns="http://www.w3.org/2000/svg" xmlns:xlink="http://www.w3.org/1999/xlink" x="0px" y="0px"
	 width="100%" viewBox="0 0 144 112" enable-background="new 0 0 144 112" xml:space="preserve">
<path fill="#000000" opacity="1.000000" stroke="none" 
	d="
M102.993576,16.775137 
	C108.309189,16.923964 113.137413,16.498314 117.938354,17.406639 
	C125.560631,18.848757 130.095764,23.259609 130.188416,30.828156 
	C130.422852,49.979271 130.427872,69.137245 130.186615,88.288208 
	C130.085205,96.337578 124.381210,102.002380 115.983215,102.082016 
	C89.170189,102.336250 62.351200,102.382874 35.539154,102.088066 
	C26.331202,101.986816 21.108774,96.317398 20.991392,87.026749 
	C20.759941,68.708183 20.735363,50.382618 20.969330,32.064342 
	C21.094007,22.302902 26.658945,17.142990 37.039162,16.909533 
	C49.192280,16.636202 61.355122,16.786364 73.513771,16.770639 
	C83.174171,16.758144 92.834610,16.772470 102.993576,16.775137 
M28.792177,28.383190 
	C25.502361,28.475084 26.423361,31.174841 26.413013,32.788696 
	C26.296543,50.953251 26.236341,69.119713 26.393238,87.283646 
	C26.448183,93.644592 29.771992,96.696266 36.158161,96.711624 
	C62.156464,96.774139 88.155067,96.785294 114.153374,96.727867 
	C121.929749,96.710686 124.772552,93.918098 124.809471,86.203560 
	C124.895607,68.205978 124.841743,50.207630 124.794922,32.209728 
	C124.791245,30.796570 125.213799,29.177071 123.438744,27.760221 
	C121.657814,29.059345 119.778481,30.368696 117.964745,31.763369 
	C106.738617,40.395714 95.535370,49.057823 84.307892,57.688423 
	C77.638023,62.815578 76.389046,62.804466 69.405685,57.738708 
	C56.053478,48.052952 42.703831,38.363651 28.792177,28.383190 
M33.426807,24.631786 
	C47.214489,34.822475 61.032848,44.972176 74.759468,55.244465 
	C77.029564,56.943291 78.391151,55.685955 79.983055,54.454048 
	C88.942024,47.521076 97.968208,40.672668 106.833420,33.621841 
	C110.931831,30.362221 115.593781,27.737530 119.039688,23.729765 
	C117.826698,21.853561 116.180756,22.327040 114.773079,22.325241 
	C89.112740,22.292461 63.452290,22.283260 37.792091,22.352365 
	C36.171558,22.356730 33.967823,21.512196 33.426807,24.631786 
z"/>
</svg>