<svg version="1.1" id="Layer_1" xmlns="http://www.w3.org/2000/svg" xmlns:xlink="http://www.w3.org/1999/xlink" x="0px" y="0px"
	 width="100%" viewBox="0 0 272 192" enable-background="new 0 0 272 192" xml:space="preserve">
<path fill="#000000" opacity="1.000000" stroke="none" 
	d="
M174.930573,72.069427 
	C186.836655,83.975693 198.399567,95.727669 210.212173,107.223053 
	C213.267548,110.196358 213.186554,112.165268 210.089005,114.810501 
	C207.311478,117.182465 204.706345,119.801720 202.304169,122.555283 
	C199.815170,125.408379 197.991180,125.106834 195.417206,122.489082 
	C183.393250,110.260612 171.206192,98.192268 159.044235,86.100082 
	C157.182358,84.248894 155.477310,82.172913 153.039856,80.967682 
	C150.699310,81.878960 149.244629,83.748512 147.616455,85.370155 
	C135.347000,97.590393 123.016296,109.751389 110.912125,122.133636 
	C108.040558,125.071175 105.917442,125.596741 103.353981,122.186935 
	C102.957008,121.658875 102.398720,121.254753 101.975723,120.743134 
	C99.150940,117.326500 93.454048,115.139130 93.552361,110.842667 
	C93.642174,106.917595 98.820259,104.400169 101.836395,101.361534 
	C117.553734,85.526894 133.466721,69.885315 149.083801,53.953224 
	C152.293549,50.678722 154.165634,51.012264 157.067612,54.115170 
	C162.750977,60.192070 168.789124,65.937141 174.930573,72.069427 
z"/>
</svg>